<?xml version="1.0" encoding="UTF-8"?>
<svg width="32px" height="33px" viewBox="0 0 32 33" version="1.1" xmlns="http://www.w3.org/2000/svg" xmlns:xlink="http://www.w3.org/1999/xlink">
    <defs>
        <linearGradient x1="62.7074054%" y1="50.070351%" x2="18.6308006%" y2="49.4649112%" id="linearGradient-1">
            <stop stop-color="#FF9F00" offset="0%"></stop>
            <stop stop-color="#FFD340" offset="100%"></stop>
        </linearGradient>
        <filter x="-12.5%" y="-100.0%" width="125.0%" height="300.0%" filterUnits="objectBoundingBox" id="filter-2">
            <feGaussianBlur stdDeviation="1" in="SourceGraphic"></feGaussianBlur>
        </filter>
        <path d="M13,2.5 C13,2.25454011 12.8231248,2.05039163 12.5898756,2.00805567 L12.5,2 L9.5,2 C9.25454011,2 9.05039163,2.17687516 9.00805567,2.41012437 L9,2.5 L9,3 L7,3 L7,1 C7,0.44771525 7.44771525,-2.31613845e-16 8,0 L14,0 C14.5522847,-1.01453063e-16 15,0.44771525 15,1 L15,3 L20,3 C21.1045695,3 22,3.8954305 22,5 L22,25 C22,26.1045695 21.1045695,27 20,27 L2,27 C0.8954305,27 1.02344917e-15,26.1045695 0,25 L0,5 C-1.3527075e-16,3.8954305 0.8954305,3 2,3 L13,3 L13,2.5 Z" id="path-3"></path>
        <linearGradient x1="58.6181711%" y1="54.5024632%" x2="28.7253873%" y2="15.7543145%" id="linearGradient-5">
            <stop stop-color="#FF9F00" offset="0%"></stop>
            <stop stop-color="#FFD340" offset="100%"></stop>
        </linearGradient>
        <filter x="-44.8%" y="-36.9%" width="189.6%" height="173.8%" filterUnits="objectBoundingBox" id="filter-6">
            <feGaussianBlur stdDeviation="4.18" in="SourceGraphic"></feGaussianBlur>
        </filter>
        <path d="M15.5,11 C18.5372768,11 21,13.4627232 21,16.5 C21,17.6575529 20.6422921,18.7316526 20.0313989,19.6177762 L22.5355339,22.1213203 C22.9260582,22.5118446 22.9260582,23.1450096 22.5355339,23.5355339 C22.1450096,23.9260582 21.5118446,23.9260582 21.1213203,23.5355339 L18.6177762,21.0313989 C17.7316526,21.6422921 16.6575529,22 15.5,22 C12.4627232,22 10,19.5372768 10,16.5 C10,13.4627232 12.4627232,11 15.5,11 Z" id="path-7"></path>
        <filter x="-54.6%" y="-39.0%" width="209.1%" height="209.1%" filterUnits="objectBoundingBox" id="filter-8">
            <feOffset dx="0" dy="2" in="SourceAlpha" result="shadowOffsetOuter1"></feOffset>
            <feGaussianBlur stdDeviation="2" in="shadowOffsetOuter1" result="shadowBlurOuter1"></feGaussianBlur>
            <feColorMatrix values="0 0 0 0 0.91510452   0 0 0 0 0.495159274   0 0 0 0 0  0 0 0 1 0" type="matrix" in="shadowBlurOuter1"></feColorMatrix>
        </filter>
    </defs>
    <g id="页面-1" stroke="none" stroke-width="1" fill="none" fill-rule="evenodd">
        <g id="图标" transform="translate(-50.000000, -394.000000)">
            <g id="常用工具备份-11" transform="translate(12.000000, 331.000000)">
                <g id="编组-5" transform="translate(15.000000, 53.000000)">
                    <g id="人员监管" transform="translate(13.000000, 0.000000)">
                        <g id="包车租车" transform="translate(10.000000, 10.000000)">
                            <rect id="矩形" x="0" y="0" width="32" height="32"></rect>
                            <ellipse id="椭圆形" fill="url(#linearGradient-1)" opacity="0.600000024" filter="url(#filter-2)" cx="16" cy="28.5" rx="12" ry="1.5"></ellipse>
                            <g id="编组-38" transform="translate(5.000000, 2.000000)">
                                <mask id="mask-4" fill="white">
                                    <use xlink:href="#path-3"></use>
                                </mask>
                                <use id="形状结合" fill="#FFDB62" xlink:href="#path-3"></use>
                                <path d="M16,37 C23.7319865,37 30,29.3888407 30,20 C30,10.6111593 23.7319865,3 16,3 C8.2680135,3 2,10.6111593 2,20 C2,29.3888407 8.2680135,37 16,37 Z" id="椭圆形" fill="url(#linearGradient-5)" filter="url(#filter-6)" mask="url(#mask-4)"></path>
                            </g>
                            <g id="形状结合" fill-rule="nonzero">
                                <use fill="black" fill-opacity="1" filter="url(#filter-8)" xlink:href="#path-7"></use>
                                <use fill="#FFFFFF" xlink:href="#path-7"></use>
                            </g>
                        </g>
                    </g>
                </g>
            </g>
        </g>
    </g>
</svg>